<svg preserveAspectRatio="xMidYMid meet" data-bbox="45.5 20.001 109 159.999" viewBox="45.5 20.001 109 159.999"
     height="200" width="200" xmlns="http://www.w3.org/2000/svg" data-type="color"
     aria-hidden="true">
    <defs>
        <style>#comp-lcvz2gsw svg [data-color="1"] {fill: #000;}</style>
    </defs>
    <g>
        <path d="M124.231 131.26H75.769v-1.939c0-5.927-2.443-11.659-6.878-16.14-8.923-9.015-13.438-21.451-12.39-34.121 1.751-21.141 19.122-38.185 40.405-39.647 12.248-.839 23.932 3.266 32.872 11.568 8.816 8.186 13.873 19.76 13.873 31.752 0 11.663-4.59 22.611-12.922 30.828-4.13 4.071-6.498 9.814-6.498 15.756v1.943zm-44.915-3.582h41.366c.399-6.301 3.087-12.3 7.512-16.662 7.644-7.539 11.856-17.584 11.856-28.284 0-11.003-4.64-21.622-12.729-29.133-8.203-7.617-18.922-11.387-30.167-10.613C77.63 44.327 61.697 59.961 60.09 79.353c-.963 11.629 3.18 23.043 11.366 31.314 4.696 4.743 7.45 10.73 7.86 17.011z"
        ></path>
        <path d="M70.864 81.818a1.794 1.794 0 0 1-1.796-1.938c1.243-15.029 13.593-27.146 28.727-28.185a31.155 31.155 0 0 1 22.713 7.627c.745.653.819 1.785.162 2.528a1.809 1.809 0 0 1-2.542.16 27.562 27.562 0 0 0-20.084-6.741c-13.376.918-24.289 11.625-25.386 24.905a1.797 1.797 0 0 1-1.794 1.644z"
        ></path>
        <path d="M122.698 140.039H77.304c-.994 0-1.8-.802-1.8-1.791s.806-1.791 1.8-1.791h45.394c.994 0 1.8.802 1.8 1.791s-.806 1.791-1.8 1.791z"
        ></path>
        <path d="M100.973 170.603h-1.945c-12.971 0-23.524-10.499-23.524-23.403v-1.791h48.995v1.791c-.001 12.904-10.554 23.403-23.526 23.403zM79.184 148.99c.913 10.094 9.465 18.03 19.843 18.03h1.945c10.38 0 18.932-7.937 19.845-18.03H79.184z"
        ></path>
        <path d="M100.001 180c-4.692 0-8.51-3.798-8.51-8.466v-2.346c0-.989.806-1.791 1.8-1.791s1.8.802 1.8 1.791v2.346c0 2.693 2.203 4.884 4.909 4.884s4.909-2.191 4.909-4.884v-2.368c0-.989.806-1.791 1.8-1.791s1.8.802 1.8 1.791v2.368c.001 4.668-3.816 8.466-8.508 8.466z"
        ></path>
        <path d="M99.999 33.136c-.994 0-1.8-.802-1.8-1.791v-9.553c0-.989.806-1.791 1.8-1.791s1.8.802 1.8 1.791v9.553a1.794 1.794 0 0 1-1.8 1.791z"
        ></path>
        <path d="M82.323 36.617a1.8 1.8 0 0 1-1.692-1.18l-3.284-8.977a1.789 1.789 0 0 1 1.076-2.296 1.803 1.803 0 0 1 2.308 1.071l3.284 8.977c.34.93-.142 1.958-1.076 2.296a1.8 1.8 0 0 1-.616.109z"
        ></path>
        <path d="M66.911 45.901a1.801 1.801 0 0 1-1.38-.639l-6.173-7.318a1.785 1.785 0 0 1 .221-2.524 1.807 1.807 0 0 1 2.536.22l6.173 7.318c.64.758.54 1.888-.221 2.524a1.803 1.803 0 0 1-1.156.419z"
        ></path>
        <path d="M55.616 59.87c-.305 0-.615-.077-.899-.24L46.4 54.854a1.788 1.788 0 0 1-.66-2.447 1.806 1.806 0 0 1 2.46-.656l8.317 4.776a1.788 1.788 0 0 1 .66 2.447 1.802 1.802 0 0 1-1.561.896z"
        ></path>
        <path d="M117.677 36.617c-.204 0-.412-.035-.616-.108a1.79 1.79 0 0 1-1.076-2.296l3.284-8.977a1.803 1.803 0 0 1 2.308-1.071 1.79 1.79 0 0 1 1.076 2.296l-3.284 8.977a1.802 1.802 0 0 1-1.692 1.179z"
        ></path>
        <path d="M133.089 45.901c-.408 0-.819-.137-1.156-.419a1.785 1.785 0 0 1-.222-2.523l6.172-7.318a1.806 1.806 0 0 1 2.537-.221c.761.636.861 1.765.222 2.523l-6.172 7.318c-.357.422-.866.64-1.381.64z"
        ></path>
        <path d="M144.384 59.87a1.803 1.803 0 0 1-1.561-.896 1.787 1.787 0 0 1 .66-2.447l8.317-4.776a1.805 1.805 0 0 1 2.46.656 1.788 1.788 0 0 1-.66 2.447l-8.317 4.776c-.285.163-.594.24-.899.24z"
        ></path>
    </g>
</svg>