<?xml version="1.0" encoding="UTF-8"?> <svg xmlns="http://www.w3.org/2000/svg" width="148" height="148" fill="none"><g stroke="#1C56D4" stroke-linejoin="round" stroke-width="3" clip-path="url(#a)"><path d="M20.617 127.383a35.567 35.567 0 0 1-10.424-25.159 35.576 35.576 0 0 1 10.424-25.16l12.58-12.552 50.318 50.292-12.58 12.579a35.578 35.578 0 0 1-38.775 7.715 35.578 35.578 0 0 1-11.543-7.715ZM42.631 73.92l22.015-22.015M1.425 146.575l19.192-19.192M127.383 20.617a35.578 35.578 0 0 1 7.715 38.776 35.578 35.578 0 0 1-7.715 11.543l-12.579 12.58-50.293-50.32 12.58-12.58a35.575 35.575 0 0 1 50.292 0ZM146.575 1.425l-19.192 19.192M74.08 105.369l22.015-22.015"></path></g><defs><clipPath id="a"><path fill="#fff" d="M0 0h148v148H0z"></path></clipPath></defs></svg> 