<?xml version="1.0" encoding="UTF-8"?> <svg xmlns="http://www.w3.org/2000/svg" width="151" height="151" fill="none"><path fill="#1C56D4" d="M63.896 143.358H51.82c-.582 0-1.09-.376-1.269-.916l-3.373-10.03c-1.91-.585-6.94-2.237-9.492-4.129l-9.851 4.82a1.36 1.36 0 0 1-1.522-.24l-8.762-8.528a1.348 1.348 0 0 1-.238-1.622l5.194-9.504c-.97-1.411-2.956-4.745-4.03-9.79L8 99.771a1.373 1.373 0 0 1-.91-1.276V86.783c0-.585.373-1.096.925-1.276l10.478-3.513c.403-1.757 1.567-6.096 3.91-9.64l-4.836-9.984a1.353 1.353 0 0 1 .239-1.531L26 52.31a1.363 1.363 0 0 1 1.552-.285l10.075 4.865c1.358-.871 4.627-2.733 9.567-3.799l3.209-10.375c.18-.57.702-.946 1.284-.946h12.358c.582 0 1.09.376 1.269.916l3.492 10.405c1.85.405 6.508 1.622 9.508 3.904l9.567-4.805a1.333 1.333 0 0 1 1.522.226l8.627 8.092a1.34 1.34 0 0 1 .298 1.562l-4.746 10.24c.806 1.591 2.94 5.99 3.582 9.173l10.493 4.054c.522.195.865.706.865 1.261v11.427c0 .57-.358 1.08-.88 1.276l-10.388 3.798c-.478 1.847-1.836 6.802-3.747 9.685l4.702 10.119a1.36 1.36 0 0 1-.254 1.517l-8.328 8.678a1.332 1.332 0 0 1-1.567.27l-10.194-5.135c-1.344.916-4.508 2.778-9.03 3.664l-3.627 10.39c-.239.51-.746.871-1.313.871Zm-11.105-2.703h10.15l3.566-10.225c.165-.465.568-.81 1.06-.885 5.717-.931 9.254-3.739 9.284-3.769.403-.33.97-.39 1.448-.15l10.044 5.045 7.015-7.297-4.642-10a1.344 1.344 0 0 1 .18-1.426c1.85-2.298 3.447-8.003 3.895-10 .105-.45.418-.811.85-.961l10.18-3.724v-9.549l-10.343-4.008a1.35 1.35 0 0 1-.851-1.097c-.403-3.318-3.702-9.579-3.731-9.639a1.36 1.36 0 0 1-.03-1.2l4.612-9.955-7.224-6.787-9.508 4.79a1.335 1.335 0 0 1-1.507-.21c-2.985-2.733-9.612-3.994-9.687-4.01a1.368 1.368 0 0 1-1.03-.9l-3.432-10.21H52.687l-3.15 10.18c-.149.48-.537.825-1.03.93-6.313 1.217-9.895 3.904-9.925 3.934-.403.316-.94.36-1.403.15l-9.895-4.79-6.866 7.148 4.761 9.85c.224.45.164.99-.12 1.395-2.94 4.024-4.059 9.94-4.074 10-.09.48-.433.886-.895 1.036L9.806 87.774v9.775l10.299 3.588c.462.165.79.556.88 1.021 1.21 6.456 4.134 10.045 4.164 10.075.358.42.418 1.036.15 1.516l-5.105 9.354 7.343 7.147 9.791-4.789a1.333 1.333 0 0 1 1.538.255c1.686 1.697 7.612 3.663 9.76 4.279.419.12.762.45.911.871l3.254 9.789Z"></path><path fill="#1C56D4" d="M57.896 113.719c-11.597 0-21.03-9.489-21.03-21.155s9.433-21.155 21.03-21.155c11.597 0 21.03 9.489 21.03 21.155s-9.448 21.155-21.03 21.155Zm0-39.608c-10.12 0-18.344 8.273-18.344 18.453s8.224 18.453 18.344 18.453c10.119 0 18.343-8.273 18.343-18.453S68 74.111 57.896 74.111ZM111.119 61.59c-.164 0-.328-.03-.492-.09l-6.149-2.418a1.336 1.336 0 0 1-.851-1.352l.403-5.945a14.53 14.53 0 0 1-3.433-3.514l-5.671.33c-.612.03-1.105-.3-1.314-.825l-2.552-6.171a1.345 1.345 0 0 1 .358-1.531l4.12-3.634c-.12-1.246-.254-3.588.044-5.255l-4.254-3.784a1.353 1.353 0 0 1-.358-1.501l2.448-6.276c.224-.57.806-.916 1.388-.856l5.537.6c.612-.885 1.806-2.357 3.762-3.783l-.359-5.796a1.383 1.383 0 0 1 .821-1.336l5.911-2.477a1.326 1.326 0 0 1 1.522.36l3.776 4.354c1.105-.165 3.194-.375 5.224-.045l3.791-4.324c.373-.42.97-.57 1.493-.36l6.03 2.387c.537.21.88.75.85 1.336l-.313 5.841c.821.6 2.224 1.802 3.612 3.739l5.567-.51a1.312 1.312 0 0 1 1.358.825l2.612 6.32c.224.541.075 1.157-.358 1.532l-4.254 3.754c.194 1.171.433 3.363.06 5.225l4.179 3.634c.418.375.582.96.373 1.501l-2.269 6.11c-.209.556-.746.902-1.313.887l-5.881-.256c-.731.841-2.179 2.463-3.522 3.454l.164 5.9a1.378 1.378 0 0 1-.821 1.292l-5.761 2.417a1.327 1.327 0 0 1-1.507-.33l-3.896-4.264c-1.179.165-3.463.405-5.224.135l-3.895 4.294c-.224.255-.597.405-.956.405Zm-4.746-4.67 4.358 1.726 3.791-4.174c.344-.375.881-.54 1.374-.39 1.283.375 4.119.12 5.612-.135.447-.075.91.075 1.209.42l3.746 4.1 4.045-1.697-.15-5.72c-.015-.496.254-.962.687-1.217 1.239-.706 3.239-2.988 3.91-3.799.269-.33.687-.51 1.09-.495l5.567.24 1.597-4.324-4.104-3.574a1.384 1.384 0 0 1-.388-1.486c.567-1.607.164-4.49-.045-5.465-.105-.48.059-.976.433-1.306l4.104-3.619-1.866-4.504-5.358.495c-.507.045-.97-.18-1.239-.6-1.865-2.838-3.865-4.04-3.88-4.054a1.363 1.363 0 0 1-.672-1.246l.269-5.586-4.254-1.681-3.687 4.189c-.328.375-.835.54-1.328.42-2.522-.616-5.612.03-5.642.03-.492.105-.97-.06-1.298-.435l-3.627-4.204-4.134 1.726.343 5.586c.03.48-.194.946-.612 1.216-2.851 1.877-3.985 4.009-4 4.024a1.36 1.36 0 0 1-1.343.72l-5.344-.585-1.73 4.444 4.163 3.709c.433.375.567.99.358 1.531-.373.916-.253 3.829-.06 5.585.046.436-.119.886-.447 1.172l-3.925 3.453 1.82 4.384 5.493-.315c.508-.03.955.21 1.224.63 1.582 2.568 3.627 3.724 3.642 3.739.462.255.731.75.686 1.276l-.388 5.796Z"></path><path fill="#1C56D4" d="M118.552 45.974c-1.567 0-3.149-.315-4.641-.93-3-1.247-5.344-3.604-6.597-6.622-2.583-6.231.358-13.423 6.567-16.005a12 12 0 0 1 9.313-.016c3 1.247 5.343 3.604 6.597 6.622 2.582 6.23-.358 13.423-6.567 16.005-1.508.63-3.09.946-4.672.946Zm0-21.8c-1.238 0-2.477.24-3.641.735-4.836 2.027-7.12 7.612-5.105 12.477 2.015 4.865 7.582 7.162 12.403 5.15 4.836-2.027 7.119-7.628 5.105-12.477a9.397 9.397 0 0 0-5.15-5.15 9.198 9.198 0 0 0-3.612-.736Z"></path></svg> 