<?xml version="1.0" encoding="UTF-8"?> <svg xmlns="http://www.w3.org/2000/svg" width="148" height="165" fill="none"><path fill="#1C56D4" d="M67.154 136.651a2.81 2.81 0 0 1-.397-.038c-.908-.208-1.475-1.136-1.267-2.045l11.99-51.225c.208-.91 1.153-1.496 2.042-1.27.908.21 1.475 1.137 1.267 2.046L68.8 135.344a1.68 1.68 0 0 1-1.645 1.307ZM59.968 125.989c-.397 0-.795-.151-1.135-.435L41.416 110.12a1.645 1.645 0 0 1-.567-1.231c-.02-.473.17-.928.51-1.269l17.417-16.854a1.682 1.682 0 0 1 2.402.038c.643.682.624 1.761-.038 2.405l-16.093 15.566 16.037 14.203c.7.625.775 1.705.15 2.405-.34.398-.793.606-1.266.606ZM85.858 125.989c-.473 0-.946-.189-1.268-.568-.624-.7-.548-1.78.152-2.405l16.037-14.203-16.094-15.566c-.68-.663-.7-1.742-.038-2.405.662-.682 1.74-.7 2.402-.038l17.417 16.854c.341.322.53.795.511 1.269 0 .473-.227.928-.567 1.231l-17.418 15.434c-.34.246-.737.397-1.135.397Z"></path><path fill="#1C56D4" d="M114.111 149.301H33.889c-4.879 0-8.87-3.977-8.87-8.882V77.112c0-4.885 3.972-8.881 8.87-8.881h80.241c4.879 0 8.869 3.977 8.869 8.881v63.326c-.019 4.886-3.99 8.863-8.888 8.863ZM33.889 71.64a5.472 5.472 0 0 0-5.465 5.472v63.326c0 3.011 2.44 5.473 5.465 5.473h80.241a5.471 5.471 0 0 0 5.465-5.473V77.112c0-3.01-2.439-5.472-5.465-5.472H33.89Z"></path><path fill="#1C56D4" d="M42.267 71.64a1.696 1.696 0 0 1-1.702-1.705V42.382c.019-.398 2.25-27.497 32.792-27.497.303 0 30.542.303 30.542 26.606v11.893c0 .947-.757 1.704-1.702 1.704a1.696 1.696 0 0 1-1.702-1.704V41.491c0-22.876-26.041-23.179-27.138-23.198-27.308 0-29.312 23.217-29.388 24.202v27.421c0 .966-.775 1.724-1.702 1.724Z"></path></svg> 