<?xml version="1.0" encoding="UTF-8"?> <svg xmlns="http://www.w3.org/2000/svg" width="150" height="147" fill="none"><path fill="#1C56D4" d="M74.99 139.382c-35.925 0-65.155-29.132-65.155-64.937 0-35.805 29.23-64.938 65.155-64.938s65.155 29.133 65.155 64.938c0 35.805-29.23 64.937-65.155 64.937Zm0-126.804c-34.226 0-62.093 27.755-62.093 61.886 0 34.133 27.847 61.887 62.093 61.887s62.094-27.754 62.094-61.886c0-34.133-27.848-61.887-62.094-61.887Z"></path><path fill="#1C56D4" d="m110.145 128.281-3.061-.02c.454-78.638-85.734-85.114-86.603-85.173l.197-3.031c.909.059 89.961 6.692 89.467 88.224Z"></path><path fill="#1C56D4" d="M59.23 137.138c-.257-.315-26.01-31.533-22.416-68.835C38.927 46.415 50.54 26.77 71.317 9.922l1.935 2.362C53.147 28.58 41.91 47.517 39.875 68.559c-3.496 36.022 21.468 66.316 21.705 66.611l-2.35 1.968Z"></path><path fill="#1C56D4" d="m30.672 121.234-.415-3.012c.375-.059 37.09-5.315 56.76-33.561C99.48 66.768 102.6 43.52 96.262 15.57l2.982-.67c6.537 28.817 3.259 52.89-9.737 71.512-20.44 29.349-58.44 34.781-58.834 34.821Z"></path><path fill="#1C56D4" d="M72.818 122.71c-1.284 0-2.548-.039-3.812-.098-33.476-1.811-54.825-26.593-55.714-27.656l2.33-1.969c.217.256 21.429 24.861 53.582 26.574 22.218 1.161 44.417-8.622 66.023-29.152l2.113 2.204c-21.033 19.979-42.718 30.097-64.522 30.097ZM46.037 51.769c4.09 0 7.406-3.305 7.406-7.382 0-4.076-3.316-7.381-7.406-7.381s-7.406 3.305-7.406 7.381c0 4.077 3.316 7.382 7.406 7.382ZM92.489 85.094c4.09 0 7.406-3.305 7.406-7.382 0-4.076-3.316-7.381-7.406-7.381s-7.407 3.305-7.407 7.381c0 4.077 3.316 7.382 7.407 7.382Z"></path><path fill="#1C56D4" d="M47.972 124.403c4.09 0 7.407-3.305 7.407-7.382 0-4.076-3.316-7.381-7.407-7.381-4.09 0-7.406 3.305-7.406 7.381 0 4.077 3.316 7.382 7.406 7.382ZM108.841 118.734c4.091 0 7.407-3.305 7.407-7.382 0-4.076-3.316-7.381-7.407-7.381-4.09 0-7.406 3.305-7.406 7.381 0 4.077 3.316 7.382 7.406 7.382Z"></path></svg> 