<?xml version="1.0" encoding="UTF-8"?> <svg xmlns="http://www.w3.org/2000/svg" width="150" height="144" fill="none"><path fill="#1C56D4" d="M75.01 14.909c-31.41 0-56.958 25.495-56.958 56.837 0 31.342 25.549 56.837 56.957 56.837 31.409 0 56.958-25.495 56.958-56.837 0-12.93-4.459-25.568-12.575-35.61l2.202-1.761c8.498 10.55 13.193 23.824 13.193 37.37 0 32.887-26.823 59.653-59.778 59.653s-59.778-26.766-59.778-59.652S42.054 12.094 75.01 12.094"></path><path fill="#1C56D4" d="M75.009 12.094c14.194 0 27.951 5.048 38.742 14.218l-1.82 2.143a57.043 57.043 0 0 0-36.904-13.546M74.045 82.677c5.196 0 9.408-4.203 9.408-9.388s-4.212-9.388-9.408-9.388-9.408 4.203-9.408 9.388 4.212 9.388 9.408 9.388Z"></path><path fill="#1C56D4" d="m75.937 63.901 51.426-42.946-44.038 50.79c-.018 0-10.08 1.58-7.388-7.844Z"></path></svg> 