<?xml version="1.0" encoding="UTF-8"?> <svg xmlns="http://www.w3.org/2000/svg" width="151" height="146" fill="none"><path fill="#1C56D4" d="M95.992 107.638H29.758c-7.532 0-13.673-6.135-13.673-13.659v-65.18c0-7.523 6.141-13.658 13.674-13.658H96.01c7.532 0 13.673 6.135 13.673 13.659v65.179c-.018 7.524-6.141 13.659-13.692 13.659ZM29.758 18.477c-5.695 0-10.333 4.633-10.333 10.323v65.179c0 5.69 4.638 10.323 10.334 10.323H96.01c5.696 0 10.334-4.634 10.334-10.323v-65.18c0-5.689-4.638-10.322-10.334-10.322H29.758Z"></path><path fill="#1C56D4" d="M119.238 130.859H53.005c-7.532 0-13.673-6.134-13.673-13.659V52.021c0-7.524 6.14-13.659 13.673-13.659h66.252c7.532 0 13.673 6.135 13.673 13.66V117.2c-.019 7.525-6.141 13.659-13.692 13.659ZM53.005 41.717c-5.696 0-10.334 4.615-10.334 10.304V117.2c0 5.69 4.638 10.323 10.334 10.323h66.252c5.695 0 10.333-4.633 10.333-10.323V52.021c0-5.69-4.638-10.323-10.333-10.323H53.005v.019Z"></path><path fill="#1C56D4" d="M41.002 108.138c-.427 0-.854-.167-1.188-.482a1.666 1.666 0 0 1 0-2.354l66.994-66.92a1.67 1.67 0 0 1 2.356 0 1.666 1.666 0 0 1 0 2.353l-66.975 66.921c-.334.334-.76.482-1.188.482ZM41.002 89.401c-.427 0-.854-.166-1.188-.481a1.665 1.665 0 0 1 0-2.354L87.55 38.88a1.666 1.666 0 0 1 2.356 2.354L42.19 88.901c-.334.334-.76.5-1.188.5ZM41.002 70.202c-.427 0-.854-.167-1.188-.482a1.665 1.665 0 0 1 0-2.354l28.534-28.503a1.665 1.665 0 0 1 2.356 2.354L42.19 69.72c-.334.333-.76.482-1.188.482ZM58.905 107.619c-.427 0-.854-.167-1.188-.482a1.666 1.666 0 0 1 0-2.354l49.072-49.018a1.664 1.664 0 1 1 2.356 2.354l-49.053 49.018c-.334.334-.76.482-1.187.482ZM77.958 107.619c-.426 0-.853-.167-1.187-.482a1.665 1.665 0 0 1 0-2.353l30.037-30.023a1.67 1.67 0 0 1 2.356 0 1.666 1.666 0 0 1 0 2.353l-30.037 30.023a1.583 1.583 0 0 1-1.169.482Z"></path></svg> 