<?xml version="1.0" encoding="UTF-8"?> <svg xmlns="http://www.w3.org/2000/svg" width="152" height="80" fill="none"><path fill="#1C56D4" d="M42.797 66.946c-.542 0-1.085-.04-1.647-.101h-.02c-15.09 0-27.507-12.49-27.507-27.823 0-15.355 12.437-27.844 27.727-27.844.442 0 11.855-.323 19.008 7.687l18.003 20.217-23.408 23.486c-.241.201-5.867 4.378-12.156 4.378Zm-1.225-52.64h-.181c-13.623 0-24.674 11.096-24.674 24.716 0 13.619 11.05 24.716 24.613 24.716 5.466.686 10.95-3.087 11.674-3.612l21.077-21.165-16.074-18.018c-5.686-6.376-14.989-6.638-16.435-6.638Z"></path><path fill="#1C56D4" d="M109.545 66.966c-6.149 0-11.795-4.197-12.036-4.398l-.16-.142L74.08 39.082l18.023-20.217c7.153-8.01 18.586-7.687 19.048-7.687 15.23 0 27.667 12.49 27.667 27.844 0 15.354-12.437 27.843-27.727 27.843-.503.06-1.025.101-1.547.101Zm-10.107-6.84c.723.525 6.189 4.298 11.493 3.612 13.763-.02 24.794-11.097 24.794-24.737 0-13.64-11.031-24.696-24.593-24.696-.161-.04-10.529-.262-16.677 6.638L78.381 38.961l21.057 21.165Z"></path></svg> 