<?xml version="1.0" encoding="UTF-8"?> <svg xmlns="http://www.w3.org/2000/svg" width="140" height="144" viewBox="0 0 140 144" fill="none"><path d="M38.762 43.2143H15.4257C14.5268 43.2143 13.8076 42.4965 13.8076 41.5992V15.0209C13.8076 14.1236 14.5268 13.4058 15.4257 13.4058H38.762C39.661 13.4058 40.3801 14.1236 40.3801 15.0209V41.5992C40.3801 42.4965 39.661 43.2143 38.762 43.2143ZM17.0438 39.984H37.1439V16.654H17.0438V39.984Z" fill="black"></path><path d="M32.1998 25.0169H21.6283C20.7294 25.0169 20.0103 24.2991 20.0103 23.4018C20.0103 22.5045 20.7294 21.7866 21.6283 21.7866H32.1998C33.0987 21.7866 33.8179 22.5045 33.8179 23.4018C33.8179 24.2991 33.0987 25.0169 32.1998 25.0169Z" fill="black"></path><path d="M32.1998 35.2103H21.6283C20.7294 35.2103 20.0103 34.4924 20.0103 33.5951C20.0103 32.6978 20.7294 31.98 21.6283 31.98H32.1998C33.0987 31.98 33.8179 32.6978 33.8179 33.5951C33.8179 34.4924 33.0987 35.2103 32.1998 35.2103Z" fill="black"></path><path d="M38.762 86.1775H15.4257C14.5268 86.1775 13.8076 85.4596 13.8076 84.5623V57.9841C13.8076 57.0867 14.5268 56.3689 15.4257 56.3689H38.762C39.661 56.3689 40.3801 57.0867 40.3801 57.9841V84.5623C40.3801 85.4417 39.661 86.1775 38.762 86.1775ZM17.0438 82.9472H37.1439V59.5992H17.0438V82.9472Z" fill="black"></path><path d="M32.1998 67.9801H21.6283C20.7294 67.9801 20.0103 67.2622 20.0103 66.3649C20.0103 65.4676 20.7294 64.7498 21.6283 64.7498H32.1998C33.0987 64.7498 33.8179 65.4676 33.8179 66.3649C33.8179 67.2622 33.0987 67.9801 32.1998 67.9801Z" fill="black"></path><path d="M32.1998 78.1555H21.6283C20.7294 78.1555 20.0103 77.4376 20.0103 76.5403C20.0103 75.643 20.7294 74.9252 21.6283 74.9252H32.1998C33.0987 74.9252 33.8179 75.643 33.8179 76.5403C33.8179 77.4376 33.0987 78.1555 32.1998 78.1555Z" fill="black"></path><path d="M38.762 130.576H15.4257C14.5268 130.576 13.8076 129.858 13.8076 128.961V102.401C13.8076 101.503 14.5268 100.786 15.4257 100.786H38.762C39.661 100.786 40.3801 101.503 40.3801 102.401V128.979C40.3801 129.858 39.661 130.576 38.762 130.576ZM17.0438 127.346H37.1439V104.016H17.0438V127.346Z" fill="black"></path><path d="M32.1998 112.379H21.6283C20.7294 112.379 20.0103 111.661 20.0103 110.764C20.0103 109.866 20.7294 109.149 21.6283 109.149H32.1998C33.0987 109.149 33.8179 109.866 33.8179 110.764C33.8179 111.661 33.0987 112.379 32.1998 112.379Z" fill="black"></path><path d="M32.1998 122.572H21.6283C20.7294 122.572 20.0103 121.854 20.0103 120.957C20.0103 120.06 20.7294 119.342 21.6283 119.342H32.1998C33.0987 119.342 33.8179 120.06 33.8179 120.957C33.8179 121.854 33.0987 122.572 32.1998 122.572Z" fill="black"></path><path d="M109.149 59.5992H91.6374C91.134 59.5992 90.6486 59.3659 90.343 58.9532L67.1325 28.3011H43.8681C42.9691 28.3011 42.25 27.5833 42.25 26.686C42.25 25.7886 42.9691 25.0708 43.8681 25.0708H67.9415C68.4449 25.0708 68.9304 25.3041 69.236 25.7169L92.4465 56.3869H109.149C110.048 56.3869 110.767 57.1047 110.767 58.002C110.767 58.8814 110.048 59.5992 109.149 59.5992Z" fill="black"></path><path d="M128.116 97.8245H109.149C108.25 97.8245 107.531 97.1066 107.531 96.2093V48.8853C107.531 47.988 108.25 47.2701 109.149 47.2701H128.116C129.015 47.2701 129.734 47.988 129.734 48.8853V75.5353C129.734 76.4327 129.015 77.1505 128.116 77.1505C127.217 77.1505 126.498 76.4327 126.498 75.5353V50.5004H110.767V94.5942H126.498V89.659C126.498 88.7617 127.217 88.0438 128.116 88.0438C129.015 88.0438 129.734 88.7617 129.734 89.659V96.2093C129.734 97.0887 129.015 97.8245 128.116 97.8245Z" fill="black"></path><path d="M128.116 84.5444C128.97 84.5444 129.662 83.8534 129.662 83.001C129.662 82.1486 128.97 81.4576 128.116 81.4576C127.262 81.4576 126.57 82.1486 126.57 83.001C126.57 83.8534 127.262 84.5444 128.116 84.5444Z" fill="black"></path><path d="M67.3123 121.478H43.8681C42.9691 121.478 42.25 120.76 42.25 119.862C42.25 118.965 42.9691 118.247 43.8681 118.247H66.5212L90.9183 86.9312C91.2239 86.5364 91.6914 86.3031 92.1948 86.3031H109.149C110.048 86.3031 110.767 87.0209 110.767 87.9183C110.767 88.8156 110.048 89.5334 109.149 89.5334H92.9858L68.5888 120.849C68.2831 121.244 67.7977 121.478 67.3123 121.478Z" fill="black"></path><path d="M108.052 72.8794H45.9716C45.0727 72.8794 44.3535 72.1615 44.3535 71.2642C44.3535 70.3669 45.0727 69.649 45.9716 69.649H108.052C108.951 69.649 109.67 70.3669 109.67 71.2642C109.67 72.1615 108.951 72.8794 108.052 72.8794Z" fill="black"></path></svg> 