<?xml version="1.0" encoding="UTF-8"?> <svg xmlns="http://www.w3.org/2000/svg" width="150" height="141" viewBox="0 0 150 141" fill="none"><path d="M126.829 16.5106C120.954 16.5106 116.183 21.2789 116.183 27.1501C116.183 29.045 116.68 30.8312 117.566 32.3688C117.318 32.3688 117.069 32.4154 116.851 32.5552L96.8193 45.0275C92.9186 39.6378 86.8576 35.8946 79.8954 35.1491V28.4703C82.444 27.8335 84.3556 25.5503 84.3556 22.8011C84.3556 19.5704 81.7292 16.9455 78.4967 16.9455C75.2642 16.9455 72.6378 19.5704 72.6378 22.8011C72.6378 25.5503 74.5493 27.8335 77.098 28.4703V35.0093C69.2499 35.0714 62.3031 38.9078 57.9362 44.7945L38.9764 26.8239C39.4892 25.5813 39.769 24.23 39.769 22.8011C39.769 16.93 34.9979 12.1616 29.1235 12.1616C23.2491 12.1616 18.478 16.93 18.478 22.8011C18.478 28.6722 23.2491 33.4405 29.1235 33.4405C32.5425 33.4405 35.5885 31.8097 37.5311 29.309L56.3821 47.1553C54.3618 50.6811 53.1962 54.735 53.1962 59.084C53.1962 64.1008 54.7503 68.776 57.3922 72.6279C57.3301 72.6745 57.2524 72.7056 57.1902 72.7522L35.4797 93.4875C33.708 92.1517 31.5012 91.3596 29.1235 91.3596C23.2491 91.3596 18.478 96.1434 18.478 101.999C18.478 107.855 23.2491 112.638 29.1235 112.638C34.9979 112.638 39.769 107.855 39.769 101.999C39.769 99.5139 38.9142 97.2462 37.4845 95.429L59.0862 74.8179C63.2201 79.6018 69.1877 82.7238 75.9014 83.1121V109.951C70.6952 110.635 66.6546 115.093 66.6546 120.498C66.6546 126.369 71.4256 131.137 77.3 131.137C83.1745 131.137 87.9455 126.353 87.9455 120.498C87.9455 115.108 83.9049 110.635 78.6987 109.951V83.1121C84.3089 82.7859 89.3908 80.5493 93.3226 77.039L99.6477 83.0965C99.0727 84.0129 98.7153 85.0846 98.7153 86.234C98.7153 89.4647 101.342 92.0896 104.574 92.0896C107.807 92.0896 110.433 89.4647 110.433 86.234C110.433 83.0033 107.807 80.3784 104.574 80.3784C103.517 80.3784 102.538 80.6735 101.684 81.1705L95.2963 75.0509C99.0727 70.7951 101.404 65.2191 101.404 59.084C101.404 54.8282 100.285 50.8364 98.3423 47.3728L118.312 34.9316C118.592 34.7608 118.763 34.4967 118.872 34.2016C120.83 36.3916 123.658 37.7895 126.829 37.7895C132.703 37.7895 137.474 33.0212 137.474 27.1501C137.474 21.2789 132.703 16.5106 126.829 16.5106Z" fill="url(#paint0_linear_331_86)"></path><defs><linearGradient id="paint0_linear_331_86" x1="18.4679" y1="71.6513" x2="137.476" y2="71.6513" gradientUnits="userSpaceOnUse"><stop stop-color="#CC1D8E"></stop><stop offset="1" stop-color="#5559A7"></stop></linearGradient></defs></svg> 