<?xml version="1.0" encoding="UTF-8"?> <svg xmlns="http://www.w3.org/2000/svg" width="139" height="142" viewBox="0 0 139 142" fill="none"><path d="M69.4999 135.764C38.9715 135.764 14.1362 110.99 14.1362 80.5367C14.1362 50.0837 38.9715 25.2883 69.4999 25.2883C100.028 25.2883 124.864 50.0623 124.864 80.5153C124.864 110.968 100.028 135.764 69.4999 135.764ZM69.4999 28.6101C40.7976 28.6101 17.4447 51.9053 17.4447 80.5367C17.4447 109.168 40.7976 132.442 69.4999 132.442C98.2022 132.442 121.555 109.147 121.555 80.5153C121.555 51.8839 98.2022 28.6101 69.4999 28.6101Z" fill="black"></path><path d="M83.9154 26.9385H80.5855V11.8727H58.0705V26.9385H54.762V8.5509H83.9154V26.9385Z" fill="black"></path><path d="M114.573 49.1836L112.231 46.8477L118.547 40.5256L109.352 31.3532L103.015 37.6539L100.673 35.3179L109.352 26.6599L123.252 40.5256L114.573 49.1836Z" fill="black"></path><path d="M24.2981 49.1836L15.6187 40.5256L29.5187 26.6599L38.1981 35.3179L35.8564 37.6539L29.5187 31.3532L20.3236 40.5256L26.6398 46.8477L24.2981 49.1836Z" fill="black"></path><path d="M74.1615 84.5322C76.0532 82.2841 75.7598 78.9318 73.5061 77.0447C71.2524 75.1576 67.8918 75.4503 66.0001 77.6984C64.1083 79.9466 64.4017 83.2988 66.6554 85.1859C68.9091 87.073 72.2697 86.7804 74.1615 84.5322Z" fill="black"></path><path d="M71.3692 77.0435L99.9426 54.2412L73.7968 81.9726C73.7968 81.9726 69.006 81.0939 71.3692 77.0435Z" fill="black"></path><path d="M91.4347 49.3978C67.8026 33.6677 47.3071 49.1621 47.0922 49.3335L45.0513 46.719C45.2661 46.5475 67.6737 29.5958 93.2823 46.6547L91.4347 49.3978Z" fill="black"></path><path d="M84.4097 59.0845C67.0723 47.5548 54.5258 58.463 54.0102 58.9345L51.7759 56.47C51.9263 56.3414 66.7071 43.3115 86.2573 56.32L84.4097 59.0845Z" fill="black"></path><path d="M61.2502 69.3712L59.1018 66.821C62.0021 64.3779 69.3281 60.9918 76.3103 65.578L74.4842 68.3426C67.8672 64.0136 61.508 69.1569 61.2502 69.3712Z" fill="black"></path></svg> 