<?xml version="1.0" encoding="UTF-8"?> <svg xmlns="http://www.w3.org/2000/svg" width="148" height="165" viewBox="0 0 148 165" fill="none"><path d="M67.1542 136.651C67.0218 136.651 66.8894 136.632 66.757 136.613C65.8493 136.405 65.282 135.477 65.49 134.568L77.4798 83.3427C77.6878 82.4337 78.6334 81.8466 79.5222 82.0739C80.4299 82.2822 80.9973 83.2101 80.7893 84.1191L68.7995 135.344C68.6293 136.121 67.9295 136.651 67.1542 136.651Z" fill="black"></path><path d="M59.9678 125.989C59.5707 125.989 59.1735 125.838 58.8331 125.554L41.4158 110.12C41.0565 109.798 40.8485 109.362 40.8485 108.889C40.8296 108.416 41.0187 107.961 41.3591 107.62L58.7764 90.7661C59.4572 90.1033 60.5351 90.1222 61.1781 90.8039C61.8211 91.4857 61.8022 92.5651 61.1403 93.209L45.0468 108.775L61.0836 122.978C61.7833 123.603 61.8589 124.683 61.2349 125.383C60.8945 125.781 60.4406 125.989 59.9678 125.989Z" fill="black"></path><path d="M85.8575 125.989C85.3847 125.989 84.9119 125.8 84.5904 125.421C83.9664 124.721 84.042 123.641 84.7417 123.016L100.779 108.813L84.685 93.2469C84.0042 92.5841 83.9853 91.5047 84.6472 90.8418C85.3091 90.1601 86.387 90.1412 87.0489 90.804L104.466 107.658C104.807 107.98 104.996 108.453 104.977 108.927C104.977 109.4 104.75 109.855 104.41 110.158L86.9922 125.592C86.6518 125.838 86.2546 125.989 85.8575 125.989Z" fill="black"></path><path d="M114.111 149.301H33.8892C29.0101 149.301 25.0198 145.324 25.0198 140.419V77.1123C25.0198 72.2265 28.9912 68.2308 33.8892 68.2308H114.13C119.009 68.2308 122.999 72.2076 122.999 77.1123V140.438C122.98 145.324 119.009 149.301 114.111 149.301ZM33.8892 71.6395C30.8823 71.6395 28.4238 74.0824 28.4238 77.1123V140.438C28.4238 143.449 30.8634 145.911 33.8892 145.911H114.13C117.137 145.911 119.595 143.468 119.595 140.438V77.1123C119.595 74.1013 117.156 71.6395 114.13 71.6395H33.8892Z" fill="black"></path><path d="M42.267 71.6395C41.3214 71.6395 40.5649 70.882 40.5649 69.9351V42.3815C40.5839 41.9838 42.8154 14.8846 73.3572 14.8846C73.6598 14.8846 103.899 15.1876 103.899 41.4914V53.384C103.899 54.3309 103.142 55.0884 102.197 55.0884C101.251 55.0884 100.495 54.3309 100.495 53.384V41.4914C100.495 18.6153 74.454 18.3123 73.3572 18.2933C46.0492 18.2933 44.0446 41.5104 43.969 42.4951V69.9162C43.969 70.882 43.1936 71.6395 42.267 71.6395Z" fill="black"></path></svg> 