<?xml version="1.0" encoding="UTF-8"?> <svg xmlns="http://www.w3.org/2000/svg" width="149" height="170" viewBox="0 0 149 170" fill="none"><path d="M74.6001 56.5265C49.3707 56.5265 22.5422 50.3588 22.5422 38.9076C22.5422 27.4563 49.3707 21.2886 74.6001 21.2886C99.8295 21.2886 126.658 27.4563 126.658 38.9076C126.68 50.3588 99.8517 56.5265 74.6001 56.5265ZM74.6001 25.2678C46.2836 25.2678 26.5399 32.4524 26.5399 38.9076C26.5399 45.3627 46.2836 52.5474 74.6001 52.5474C102.917 52.5474 122.66 45.3627 122.66 38.9076C122.66 32.4524 102.939 25.2678 74.6001 25.2678Z" fill="#010101"></path><path d="M74.6001 93.4447C49.3707 93.4447 22.5422 87.2769 22.5422 75.8257H26.5399C26.5399 82.2808 46.2836 89.4655 74.6001 89.4655C102.917 89.4655 122.66 82.2808 122.66 75.8257H126.658C126.68 87.2769 99.8517 93.4447 74.6001 93.4447Z" fill="#010101"></path><path d="M24.541 103.039C23.4306 103.039 22.5422 102.155 22.5422 101.049V38.9076C22.5422 37.8022 23.4306 36.918 24.541 36.918C25.6515 36.918 26.5399 37.8022 26.5399 38.9076V101.049C26.5399 102.155 25.6515 103.039 24.541 103.039Z" fill="#010101"></path><path d="M124.659 103.039C123.549 103.039 122.66 102.155 122.66 101.049V38.9076C122.66 37.8022 123.549 36.918 124.659 36.918C125.769 36.918 126.658 37.8022 126.658 38.9076V101.049C126.68 102.155 125.769 103.039 124.659 103.039Z" fill="#010101"></path><path d="M77.1318 125.389C73.0675 125.389 70.2026 123.377 70.0249 123.266C70.0027 123.266 63.6287 119.508 55.7223 119.508C51.1251 119.508 48.4156 120.525 45.5284 121.586C43.3075 122.404 41.02 123.266 37.9551 123.576C30.9149 124.306 19.2774 119.553 18.7888 119.354C17.7672 118.934 17.2786 117.784 17.7006 116.767C18.1225 115.75 19.2996 115.264 20.299 115.684C20.4101 115.728 31.5145 120.216 37.5332 119.619C40.0872 119.354 42.0638 118.624 44.1292 117.85C47.0608 116.767 50.3922 115.529 55.7223 115.529C64.828 115.529 71.9349 119.774 72.2458 119.973C72.5345 120.172 76.8875 123.112 81.9955 119.973C88.214 116.148 94.8989 112.81 102.517 117.408C107.269 120.282 114.265 122.648 120.461 117.563C127.257 111.992 130.567 112.832 131.433 113.208C132.432 113.672 132.876 114.844 132.432 115.839C132.01 116.767 130.944 117.231 129.989 116.9C129.723 116.878 127.657 116.833 123.016 120.636C116.753 125.742 108.757 125.809 100.451 120.791C95.2765 117.674 90.7237 119.265 84.1054 123.333C81.5736 124.88 79.1972 125.389 77.1318 125.389Z" fill="#010101"></path><path d="M77.1318 151.121C73.0675 151.121 70.2026 149.109 70.0249 148.999C70.0027 148.999 63.6287 145.218 55.7223 145.218C51.1251 145.218 48.4156 146.235 45.5284 147.296C43.3075 148.114 41.02 148.976 37.9551 149.286C30.9371 150.015 19.2774 145.263 18.7888 145.064C17.7672 144.644 17.2786 143.494 17.7006 142.477C18.1225 141.46 19.2996 140.974 20.299 141.394C20.4101 141.438 31.5367 145.948 37.5332 145.329C40.0872 145.064 42.0638 144.334 44.1292 143.56C47.0608 142.477 50.3922 141.239 55.7223 141.239C64.828 141.239 71.9349 145.484 72.2458 145.683C72.5345 145.882 76.8875 148.822 81.9955 145.683C88.214 141.858 94.9212 138.52 102.517 143.118C107.269 145.992 114.265 148.357 120.461 143.273C127.257 137.702 130.567 138.542 131.433 138.918C132.432 139.382 132.876 140.554 132.432 141.549C132.01 142.477 130.944 142.941 129.989 142.61C129.723 142.588 127.657 142.543 123.016 146.324C116.753 151.43 108.757 151.497 100.451 146.478C95.2765 143.361 90.7237 144.953 84.1054 149.021C81.5736 150.59 79.1972 151.121 77.1318 151.121Z" fill="#010101"></path></svg> 