<?xml version="1.0" encoding="UTF-8"?> <svg xmlns="http://www.w3.org/2000/svg" width="149" height="142" viewBox="0 0 149 142" fill="none"><path d="M125.711 127.004H23.2886C20.7831 127.004 18.7581 124.962 18.7581 122.465V19.5351C18.7581 17.0249 20.7961 14.996 23.2886 14.996H125.711C128.217 14.996 130.242 17.0379 130.242 19.5351V122.452C130.242 124.962 128.217 127.004 125.711 127.004ZM23.2886 17.3241C22.0683 17.3241 21.0817 18.3125 21.0817 19.5351V122.452C21.0817 123.674 22.0683 124.663 23.2886 124.663H125.711C126.932 124.663 127.918 123.674 127.918 122.452V19.5351C127.918 18.3125 126.932 17.3241 125.711 17.3241H23.2886Z" fill="url(#paint0_linear_331_151)"></path><path d="M49.5887 107.781V93.2534H51.5619V111.293H49.9782L39.0738 96.817V111.293H37.1526V93.2534H38.7363L49.5887 107.781Z" fill="black"></path><path d="M56.6505 100.043C57.7409 98.846 59.1819 98.2347 60.9863 98.2347C62.7907 98.2347 64.2446 98.833 65.348 100.043C66.4514 101.239 66.9966 102.852 66.9966 104.855C66.9966 106.858 66.4514 108.47 65.348 109.667C64.2446 110.864 62.7907 111.475 60.9863 111.475C59.1819 111.475 57.728 110.877 56.6505 109.667C55.5601 108.47 55.0278 106.858 55.0278 104.855C55.0278 102.852 55.5601 101.252 56.6505 100.043ZM63.8941 101.265C63.2061 100.407 62.2325 99.9775 60.9863 99.9775C59.7401 99.9775 58.7794 100.407 58.1044 101.265C57.4294 102.123 57.0919 103.32 57.0919 104.868C57.0919 108.132 58.39 109.758 60.9863 109.758C63.6215 109.758 64.9326 108.132 64.9326 104.868C64.9326 103.32 64.5821 102.11 63.8941 101.265Z" fill="black"></path><path d="M79.329 92.6681H81.406V111.293H79.3809V108.965C78.628 110.642 77.2 111.488 75.0841 111.488C73.4095 111.488 72.0464 110.864 71.0209 109.641C69.9824 108.405 69.4631 106.793 69.4631 104.829C69.4631 102.852 69.9694 101.265 70.9949 100.056C72.0205 98.859 73.3835 98.2477 75.0841 98.2477C77.1221 98.2477 78.5371 99.0671 79.329 100.719V92.6681ZM78.3683 101.265C77.6933 100.407 76.7327 99.9775 75.4865 99.9775C74.2403 99.9775 73.2667 100.394 72.5787 101.239C71.8907 102.084 71.5402 103.268 71.5402 104.816C71.5402 106.363 71.8907 107.573 72.5787 108.444C73.2667 109.316 74.2403 109.758 75.4865 109.758C76.7327 109.758 77.6933 109.329 78.3683 108.47C79.0434 107.612 79.3809 106.415 79.3809 104.868C79.3809 103.32 79.0434 102.11 78.3683 101.265Z" fill="black"></path><path d="M95.2053 104.868H85.9366C85.9366 108.132 87.3646 109.758 90.2335 109.758C91.7523 109.758 93.1153 109.264 94.3226 108.275L95.0106 109.758C93.7644 110.916 92.1677 111.488 90.2205 111.488C88.2084 111.488 86.6506 110.89 85.5342 109.706C84.4178 108.522 83.8596 106.91 83.8596 104.868C83.8596 102.93 84.4178 101.33 85.5342 100.095C86.6506 98.859 88.0786 98.2347 89.831 98.2347C91.5056 98.2347 92.8168 98.7809 93.7774 99.8865C94.725 100.992 95.2053 102.514 95.2053 104.452V104.868ZM93.3879 103.528C93.1932 101.096 92.0119 99.8734 89.831 99.8734C87.6891 99.8734 86.4169 101.096 85.9886 103.528H93.3879Z" fill="black"></path><defs><linearGradient id="paint0_linear_331_151" x1="74.5017" y1="74.585" x2="74.5017" y2="-15.3276" gradientUnits="userSpaceOnUse"><stop stop-color="#68CDF1"></stop><stop offset="0.0502" stop-color="#65C3EA"></stop><stop offset="0.27" stop-color="#5AA3D7"></stop><stop offset="0.4795" stop-color="#538BC8"></stop><stop offset="0.6736" stop-color="#4E7CBE"></stop><stop offset="0.8464" stop-color="#4B73B8"></stop><stop offset="0.9804" stop-color="#4A70B6"></stop></linearGradient></defs></svg> 