<?xml version="1.0" encoding="UTF-8"?> <svg xmlns="http://www.w3.org/2000/svg" width="151" height="155" viewBox="0 0 151 155" fill="none"><path d="M64.4843 121.993C63.3874 121.993 61.5903 121.736 59.8633 120.379C57.5061 118.507 56.1991 115.232 55.9658 110.671C55.5223 109.454 53.2818 103.606 49.3376 99.5593C44.8333 94.9041 37.365 85.009 38.0185 71.1605C38.0185 70.6459 38.1351 56.4699 48.4274 46.8321C49.5943 45.3584 59.0698 34.0363 78.184 35.2527C78.4407 35.2527 110.788 36.5393 112.632 73.5466C112.632 74.108 112.795 86.1786 104.3 96.2375L101.546 93.8982C109.154 84.9154 109.037 73.7805 109.037 73.6635C107.357 40.1184 79.2109 38.9254 78.0206 38.8786C59.9566 37.8259 51.5548 48.6802 51.2047 49.148L50.9947 49.3819C41.7526 57.9671 41.6359 71.0904 41.6359 71.2307C41.0525 83.7926 47.844 92.7754 51.9515 97.0095C56.9226 102.156 59.3732 109.431 59.4899 109.735L59.5832 110.226C59.7233 113.735 60.5868 116.262 62.0804 117.478C63.3874 118.554 64.811 118.344 64.8811 118.32L65.1845 118.297H84.9055C84.9288 118.297 84.9522 118.297 84.9522 118.297C90.5767 118.297 90.7868 112.449 90.8101 111.77C90.9035 109.244 92.6072 105.641 96.0146 100.705L98.9786 102.764C94.941 108.589 94.4509 111.045 94.4276 111.817C94.4276 111.957 94.4042 116.472 91.4169 119.42C89.7599 121.081 87.5194 121.993 84.9055 121.899H65.3478C65.1144 121.969 64.8344 121.993 64.4843 121.993Z" fill="black"></path><path d="M70.3655 151.819C65.0209 151.819 62.8271 146.953 62.2203 143.444C59.3964 142.719 57.2959 140.146 57.2959 137.081V132.777C57.2959 129.151 60.2366 126.204 63.854 126.204H86.9825C90.5999 126.204 93.5406 129.151 93.5406 132.777V137.081C93.5406 140.122 91.4634 142.695 88.6395 143.421C87.7293 149.877 83.5984 151.748 81.4046 151.795L70.3655 151.819ZM63.8307 129.806C62.2203 129.806 60.89 131.116 60.89 132.754V137.058C60.89 138.672 62.197 140.005 63.8307 140.005C64.7876 140.005 65.5577 140.754 65.6277 141.69C65.6744 142.345 66.2345 148.169 70.3421 148.169H81.3112C81.5913 148.146 84.812 147.748 85.1387 141.713C85.1854 140.754 85.9789 140.005 86.9358 140.005C88.5461 140.005 89.8764 138.695 89.8764 137.058V132.754C89.8764 131.139 88.5695 129.806 86.9358 129.806H63.8307Z" fill="black"></path><path d="M78.604 100.542H72.3726C71.6958 100.542 71.0656 100.144 70.7622 99.5359L68.6851 95.372C67.1681 94.9042 65.6744 94.296 64.2741 93.524L60.0032 94.951C59.3497 95.1615 58.6496 94.9977 58.1595 94.5065L53.7485 90.1087C53.2584 89.6174 53.095 88.9156 53.3051 88.2606L54.7287 83.9798C53.9585 82.5528 53.3284 81.0791 52.885 79.5586L48.754 77.4766C48.1472 77.1725 47.7505 76.5409 47.7505 75.8625V69.6401C47.7505 68.9617 48.1472 68.3301 48.754 68.026L52.9083 65.944C53.3517 64.4235 53.9819 62.9498 54.752 61.5228L53.3284 57.2419C53.1183 56.5869 53.2817 55.8852 53.7718 55.3939L58.1828 50.9727C58.6729 50.4815 59.3731 50.3177 60.0265 50.5282L64.2975 51.9552C65.6978 51.1832 67.1681 50.575 68.7085 50.1072L70.7856 45.9433C71.089 45.3351 71.7191 44.9374 72.3959 44.9374H78.6273C79.3041 44.9374 79.9343 45.3351 80.2377 45.9433L82.3148 50.1072C83.8551 50.575 85.3255 51.1832 86.7258 51.9552L90.9967 50.5282C91.6502 50.3177 92.3503 50.4815 92.8404 50.9727L97.2514 55.3939C97.7415 55.8852 97.9049 56.5869 97.6949 57.2419L96.2712 61.5462C97.018 62.9264 97.6482 64.4235 98.1149 65.9674L102.269 68.0494C102.876 68.3535 103.273 68.9851 103.273 69.6635V75.8859C103.273 76.5643 102.876 77.1959 102.269 77.5L98.0683 79.5352C97.6015 81.1025 96.9947 82.5762 96.2245 83.9564L97.3214 87.2782C97.6248 88.2373 97.1347 89.2431 96.1778 89.5706C95.221 89.8981 94.2174 89.3835 93.8907 88.4244L92.5371 84.3307C92.3737 83.8394 92.4204 83.278 92.7004 82.8335C93.6106 81.2896 94.3108 79.6054 94.8009 77.8041C94.9409 77.3129 95.2677 76.8918 95.7344 76.6579L99.5853 74.7163V70.7395L95.7344 68.7979C95.2677 68.564 94.9409 68.1429 94.8009 67.6517C94.3108 65.8504 93.6106 64.1428 92.7004 62.6223C92.4437 62.1778 92.3737 61.6164 92.5371 61.1251L93.8673 57.125L91.0434 54.2945L87.0758 55.6278C86.5857 55.7916 86.0489 55.7448 85.5822 55.4641C84.0185 54.5284 82.3148 53.8266 80.5411 53.3587C80.051 53.2184 79.6309 52.8909 79.3975 52.423L77.4604 48.5632H73.4695L71.5324 52.423C71.299 52.8909 70.8789 53.2418 70.3888 53.3587C68.6151 53.8266 66.9347 54.5284 65.3477 55.4641C64.9043 55.7214 64.3442 55.7682 63.854 55.6278L59.8865 54.2945L57.0625 57.125L58.3928 61.1251C58.5562 61.6164 58.5095 62.1778 58.2295 62.6223C57.2726 64.213 56.5724 65.9206 56.1523 67.6517C56.0123 68.1663 55.6856 68.5874 55.2188 68.8213L51.3446 70.7629V74.7397L55.1955 76.6813C55.6622 76.9152 56.0123 77.3363 56.129 77.8509C56.5724 79.582 57.2726 81.2662 58.2061 82.8803C58.4629 83.3248 58.5329 83.8862 58.3695 84.3775L57.0392 88.3776L59.8632 91.1847L63.8307 89.8747C64.3208 89.711 64.8576 89.7812 65.301 90.0385C66.888 90.9742 68.5684 91.676 70.3421 92.1438C70.8323 92.2842 71.2523 92.6117 71.4857 93.0795L73.4228 96.9393H77.4137L79.3508 93.0795C79.5842 92.6117 80.0043 92.2608 80.4944 92.1438C82.2448 91.676 83.9485 90.9742 85.5355 90.0385C86.399 89.5239 87.4959 89.828 88.0094 90.6935C88.5228 91.559 88.2194 92.6585 87.3559 93.1731C85.7222 94.1322 84.0185 94.8808 82.2214 95.4188L80.1443 99.5827C79.9343 100.144 79.3041 100.542 78.604 100.542Z" fill="black"></path><path d="M75.5 89.5004C66.2813 89.5004 58.7664 81.968 58.7664 72.7279C58.7664 63.4878 66.2813 55.9553 75.5 55.9553C84.7187 55.9553 92.2337 63.4878 92.2337 72.7279C92.2337 81.968 84.7421 89.5004 75.5 89.5004ZM75.5 59.5578C68.2651 59.5578 62.3838 65.4528 62.3838 72.7045C62.3838 79.9562 68.2651 85.8512 75.5 85.8512C82.735 85.8512 88.6163 79.9562 88.6163 72.7045C88.6163 65.4761 82.735 59.5578 75.5 59.5578Z" fill="#7D7E81"></path><path d="M109.177 113.642C107.614 113.642 106.167 113.034 105.047 111.934L86.3991 93.2199C85.699 92.5182 85.699 91.3719 86.3991 90.6701C87.0993 89.9684 88.2429 89.9684 88.943 90.6701L107.614 109.384C108.034 109.805 108.594 110.039 109.177 110.039C109.761 110.039 110.298 109.805 110.718 109.384C111.161 108.963 111.371 108.402 111.395 107.817C111.395 107.232 111.161 106.671 110.741 106.25L94.6843 90.1555C93.9841 89.4537 93.9841 88.3075 94.6843 87.6057C95.3845 86.9039 96.528 86.8805 97.2515 87.6057C97.2982 87.6525 97.3682 87.7227 97.4149 87.7694L113.308 103.7C114.429 104.823 115.035 106.296 115.012 107.84C115.012 109.384 114.405 110.858 113.285 111.934C112.188 113.01 110.741 113.618 109.177 113.642Z" fill="#7D7E81"></path><path d="M87.6595 93.7344C87.1927 93.7344 86.726 93.5473 86.3759 93.1964L81.2647 88.0734C80.9847 87.7927 80.7746 87.512 80.5413 87.2079C79.9578 86.4125 80.1212 85.2663 80.938 84.6815C81.7549 84.0967 82.8751 84.2604 83.4586 85.0791C83.5753 85.2195 83.6686 85.3832 83.8086 85.5002L88.9198 90.6232C89.6199 91.325 89.6199 92.4712 88.9198 93.173C88.593 93.5707 88.1263 93.7344 87.6595 93.7344Z" fill="#7D7E81"></path><path d="M95.9211 90.67C95.4543 90.67 94.9876 90.4829 94.6375 90.132L86.9358 82.4124C86.2123 81.9212 85.9322 80.9387 86.329 80.1199C86.7724 79.231 87.846 78.8567 88.7562 79.2778C89.1063 79.4415 89.3397 79.6989 89.503 79.8392L97.2047 87.5588C97.9049 88.2606 97.9049 89.4068 97.2047 90.1086C96.8547 90.4829 96.3879 90.67 95.9211 90.67Z" fill="#7D7E81"></path><path d="M75.2434 27.7905C74.2398 27.7905 73.4463 26.9717 73.4463 25.9892V9.68454C73.4463 8.67865 74.2631 7.8833 75.2434 7.8833C76.2469 7.8833 77.0404 8.70205 77.0404 9.68454V25.9659C77.0638 26.9717 76.2469 27.7905 75.2434 27.7905Z" fill="black"></path><path d="M109.037 40.7032C108.571 40.7032 108.104 40.5161 107.754 40.1652C107.054 39.4634 107.054 38.3172 107.754 37.6154L119.236 26.1062C119.937 25.4044 121.08 25.4044 121.78 26.1062C122.48 26.808 122.48 27.9542 121.78 28.656L110.298 40.1652C109.971 40.5395 109.504 40.7032 109.037 40.7032Z" fill="black"></path><path d="M124.044 74.529C123.041 74.529 122.247 73.7102 122.247 72.7278C122.247 71.7453 123.064 70.9265 124.044 70.9265H140.288C141.291 70.9265 142.085 71.7453 142.085 72.7278C142.085 73.7102 141.268 74.529 140.288 74.529H124.044Z" fill="black"></path><path d="M41.9392 40.7032C41.4724 40.7032 41.0057 40.5161 40.6556 40.1652L29.1731 28.656C28.4729 27.9542 28.4729 26.808 29.1731 26.1062C29.8732 25.4044 31.0168 25.4044 31.717 26.1062L43.1995 37.6154C43.8997 38.3172 43.8997 39.4634 43.1995 40.1652C42.8728 40.5395 42.406 40.7032 41.9392 40.7032Z" fill="black"></path><path d="M26.9559 74.529H10.7123C9.70879 74.529 8.91528 73.7102 8.91528 72.7278C8.91528 71.7453 9.73213 70.9265 10.7123 70.9265H26.9559C27.9595 70.9265 28.753 71.7453 28.753 72.7278C28.753 73.7102 27.9595 74.529 26.9559 74.529Z" fill="black"></path></svg> 