<?xml version="1.0" encoding="UTF-8"?> <svg xmlns="http://www.w3.org/2000/svg" width="147" height="151" viewBox="0 0 147 151" fill="none"><path d="M75.4084 63.6954H38.2608C32.7398 63.6954 28.2639 59.206 28.2639 53.6682V49.7029C28.2639 44.1652 32.7398 39.6758 38.2608 39.6758H75.4312C80.9522 39.6758 85.4281 44.1652 85.4281 49.7029V53.6682C85.4053 59.206 80.9295 63.6954 75.4084 63.6954ZM38.2608 43.0941C34.6256 43.0941 31.672 46.0567 31.672 49.7029V53.6682C31.672 57.3145 34.6256 60.2771 38.2608 60.2771H75.4312C79.0664 60.2771 82.02 57.3145 82.02 53.6682V49.7029C82.02 46.0567 79.0664 43.0941 75.4312 43.0941H38.2608Z" fill="black"></path><path d="M76.3401 49.9763H61.3901V53.3947H76.3401V49.9763Z" fill="black"></path><path d="M37.5564 53.9188C38.7861 53.9188 39.783 52.9189 39.783 51.6855C39.783 50.452 38.7861 49.4521 37.5564 49.4521C36.3267 49.4521 35.3298 50.452 35.3298 51.6855C35.3298 52.9189 36.3267 53.9188 37.5564 53.9188Z" fill="black"></path><path d="M45.3948 53.9188C46.6245 53.9188 47.6214 52.9189 47.6214 51.6855C47.6214 50.452 46.6245 49.4521 45.3948 49.4521C44.1651 49.4521 43.1682 50.452 43.1682 51.6855C43.1682 52.9189 44.1651 53.9188 45.3948 53.9188Z" fill="black"></path><path d="M52.7791 53.9188C54.0088 53.9188 55.0057 52.9189 55.0057 51.6855C55.0057 50.452 54.0088 49.4521 52.7791 49.4521C51.5494 49.4521 50.5525 50.452 50.5525 51.6855C50.5525 52.9189 51.5494 53.9188 52.7791 53.9188Z" fill="black"></path><path d="M75.4084 84.2967H38.2608C32.7398 84.2967 28.2639 79.8073 28.2639 74.2696V70.3043C28.2639 64.7665 32.7398 60.2771 38.2608 60.2771H75.4312C80.9522 60.2771 85.4281 64.7665 85.4281 70.3043V74.2696C85.4053 79.8073 80.9295 84.2967 75.4084 84.2967ZM38.2608 63.6955C34.6256 63.6955 31.672 66.658 31.672 70.3043V74.2696C31.672 77.9158 34.6256 80.8784 38.2608 80.8784H75.4312C79.0664 80.8784 82.02 77.9158 82.02 74.2696V70.3043C82.02 66.658 79.0664 63.6955 75.4312 63.6955H38.2608Z" fill="black"></path><path d="M76.3401 70.5776H61.3901V73.996H76.3401V70.5776Z" fill="black"></path><path d="M37.5564 74.5201C38.7861 74.5201 39.783 73.5202 39.783 72.2868C39.783 71.0534 38.7861 70.0535 37.5564 70.0535C36.3267 70.0535 35.3298 71.0534 35.3298 72.2868C35.3298 73.5202 36.3267 74.5201 37.5564 74.5201Z" fill="black"></path><path d="M45.3948 74.5201C46.6245 74.5201 47.6214 73.5202 47.6214 72.2868C47.6214 71.0534 46.6245 70.0535 45.3948 70.0535C44.1651 70.0535 43.1682 71.0534 43.1682 72.2868C43.1682 73.5202 44.1651 74.5201 45.3948 74.5201Z" fill="black"></path><path d="M52.7791 74.5201C54.0088 74.5201 55.0057 73.5202 55.0057 72.2868C55.0057 71.0534 54.0088 70.0535 52.7791 70.0535C51.5494 70.0535 50.5525 71.0534 50.5525 72.2868C50.5525 73.5202 51.5494 74.5201 52.7791 74.5201Z" fill="black"></path><path d="M56.8461 103.667C33.9441 103.667 15.2908 84.9802 15.2908 61.986C15.2908 38.9919 33.9214 20.3049 56.8461 20.3049C79.7708 20.3049 98.3787 39.0147 98.3787 61.986C98.3787 84.9574 79.7481 103.667 56.8461 103.667ZM56.8461 23.7233C35.8072 23.7233 18.6988 40.8834 18.6988 61.986C18.6988 83.0887 35.8072 100.249 56.8461 100.249C77.8851 100.249 94.9707 83.0887 94.9707 61.986C94.9707 40.8834 77.8623 23.7233 56.8461 23.7233Z" fill="#7D7E81"></path><path d="M118.986 135.253C118.554 135.253 118.123 135.093 117.782 134.751L92.7896 109.683C92.4716 109.364 92.2898 108.931 92.2898 108.476C92.2898 108.02 92.4716 107.587 92.7896 107.268L104.4 95.6453C105.059 94.9844 106.149 94.9844 106.808 95.6453L131.8 120.713C132.118 121.032 132.3 121.465 132.3 121.921C132.3 122.377 132.118 122.81 131.8 123.129L120.19 134.774C119.849 135.093 119.418 135.253 118.986 135.253ZM96.4022 108.476L118.986 131.128L128.188 121.921L105.604 99.2688L96.4022 108.476Z" fill="#7D7E81"></path><path d="M99.742 104.146C99.3103 104.146 98.8786 103.986 98.5605 103.667L86.0644 91.4293C85.3828 90.7684 85.3828 89.6974 86.0417 89.0137C86.7005 88.33 87.7684 88.33 88.45 88.9909L100.946 101.229C101.628 101.889 101.628 102.961 100.969 103.644C100.628 103.963 100.196 104.146 99.742 104.146Z" fill="#7D7E81"></path></svg> 