<?xml version="1.0" encoding="UTF-8"?> <svg xmlns="http://www.w3.org/2000/svg" width="142" height="145" viewBox="0 0 142 145" fill="none"><path d="M78.5498 43.023C77.9792 43.023 77.4086 42.7167 77.0793 42.1915C71.395 32.6722 60.9699 26.7636 49.8645 26.7636C48.9208 26.7636 48.1746 25.9977 48.1746 25.0786C48.1746 24.1595 48.9427 23.3936 49.8645 23.3936C62.1551 23.3936 73.6994 29.9367 79.9984 40.4846C80.4812 41.2942 80.2178 42.3228 79.4058 42.8042C79.1424 42.9574 78.8351 43.023 78.5498 43.023Z" fill="#7D7E81"></path><path d="M16.5044 60.0265C15.5607 60.0265 14.8145 59.2606 14.8145 58.3415C14.8145 39.0621 30.5508 23.3936 49.8645 23.3936C50.8083 23.3936 51.5545 24.1595 51.5545 25.0786C51.5545 25.9977 50.7863 26.7636 49.8645 26.7636C32.4163 26.7636 18.2163 40.9222 18.2163 58.3196C18.2163 59.2606 17.4481 60.0265 16.5044 60.0265Z" fill="#7D7E81"></path><path d="M49.8645 93.2675C30.5288 93.2675 14.8145 77.5989 14.8145 58.3196C14.8145 57.3786 15.5826 56.6345 16.5044 56.6345C17.4262 56.6345 18.1944 57.4004 18.1944 58.3196C18.1944 75.7169 32.3944 89.8755 49.8426 89.8755C61.1455 89.8755 71.6803 83.7919 77.3208 74.01C77.7817 73.2003 78.8132 72.9158 79.6472 73.3754C80.4593 73.8349 80.7446 74.8854 80.2837 75.695C74.0506 86.5274 62.3965 93.2675 49.8645 93.2675Z" fill="#7D7E81"></path><path d="M110.769 130.382C108.069 130.382 105.523 129.31 103.592 127.34L81.8639 105.369C77.9573 101.408 77.8475 95.0402 81.6225 91.1668L83.5758 89.1535C85.3755 87.2934 87.8117 86.2868 90.4234 86.2649H90.4454C93.1449 86.2649 95.6908 87.3372 97.6222 89.3067L119.35 111.278C123.257 115.239 123.367 121.607 119.592 125.48L117.638 127.493C115.839 129.353 113.402 130.36 110.791 130.382H110.769ZM90.4454 89.6787C88.7335 89.6787 87.1752 90.3352 86.012 91.5388L84.0586 93.5521C81.5566 96.1125 81.6664 100.358 84.2781 103.006L106.006 124.977C107.301 126.29 108.991 127.012 110.769 127.012H110.791C112.481 127.012 114.039 126.355 115.202 125.152L117.155 123.139C119.657 120.578 119.548 116.333 116.936 113.685L95.208 91.7139C93.9131 90.4009 92.245 89.6787 90.4454 89.6787Z" fill="#7D7E81"></path><path d="M83.2247 93.2675C82.7638 93.2675 82.3029 93.0924 81.9737 92.7204L72.6241 82.5665C71.9876 81.8881 72.0315 80.8158 72.7339 80.1812C73.4142 79.5465 74.4897 79.5903 75.1261 80.2906L84.4758 90.4445C85.1122 91.1229 85.0683 92.1952 84.366 92.8298C84.0368 93.1143 83.6417 93.2675 83.2247 93.2675Z" fill="#7D7E81"></path><path d="M50.6108 58.3195C50.6108 67.992 47.0114 73.3316 40.6906 73.3316C35.1159 73.3316 31.341 68.1233 31.2532 58.7134C31.2532 49.1722 35.3793 43.9202 41.1734 43.9202C47.187 43.942 50.6108 49.2816 50.6108 58.3195ZM35.1379 58.7572C35.1379 66.1538 37.4204 70.3554 40.932 70.3554C44.8825 70.3554 46.77 65.7599 46.77 58.4946C46.77 51.4919 44.9703 46.8963 40.9759 46.8963C37.596 46.9182 35.1379 51.0323 35.1379 58.7572Z" fill="black"></path><path d="M60.0043 48.0125H59.9165L54.9564 50.6823L54.2102 47.7499L60.4433 44.4236H63.7354V72.8502H60.0043V48.0125Z" fill="black"></path><path d="M105.282 57.5757C105.282 64.2282 102.802 67.9047 98.4562 67.9047C94.6154 67.9047 92.0256 64.3158 91.9597 57.8601C91.9597 51.2951 94.7909 47.6843 98.7854 47.6843C102.933 47.6843 105.282 51.3607 105.282 57.5757ZM94.6373 57.882C94.6373 62.959 96.1956 65.8476 98.6098 65.8476C101.331 65.8476 102.626 62.6964 102.626 57.6851C102.626 52.8707 101.397 49.7195 98.6537 49.7195C96.3273 49.7195 94.6373 52.5643 94.6373 57.882Z" fill="black"></path><path d="M111.734 50.4854H111.669L108.267 52.3236L107.762 50.3103L112.042 48.0344H114.302V67.5983H111.734V50.4854Z" fill="black"></path><path d="M126.988 76.5266H80.1082C79.1644 76.5266 78.4182 75.7607 78.4182 74.8416C78.4182 73.9225 79.1864 73.1565 80.1082 73.1565H125.254L125.057 43.0449H79.4717C78.528 43.0449 77.7817 42.2789 77.7817 41.3598C77.7817 40.4407 78.5499 39.6748 79.4717 39.6748H126.768C127.712 39.6748 128.458 40.4188 128.458 41.3598L128.678 74.8635C128.678 75.323 128.502 75.7388 128.173 76.067C127.866 76.3515 127.427 76.5266 126.988 76.5266Z" fill="black"></path><path d="M78.5498 77.0082C78.2645 77.0082 77.9792 76.9425 77.7158 76.7893C76.9038 76.3298 76.6184 75.2794 77.0793 74.4697C79.6911 69.9179 81.2055 64.0312 81.2055 58.3197C81.2055 52.1923 79.8228 46.7652 77.1013 42.1915C76.6184 41.3818 76.8818 40.3533 77.6939 39.8719C78.5059 39.3904 79.5375 39.653 80.0203 40.4627C83.049 45.5616 84.6073 51.5577 84.6073 58.3197C84.6073 64.7096 82.9832 71.034 80.0422 76.1547C79.6911 76.7018 79.1205 77.0082 78.5498 77.0082Z" fill="#7D7E81"></path></svg> 