<?xml version="1.0" encoding="UTF-8"?> <svg xmlns="http://www.w3.org/2000/svg" width="149" height="144" viewBox="0 0 149 144" fill="none"><path d="M62.1124 68.6707C54.2977 68.6707 47.9302 62.3016 47.9302 54.485C47.9302 46.6683 54.2977 40.2992 62.1124 40.2992C69.9271 40.2992 76.2946 46.6683 76.2946 54.485C76.2946 62.3016 69.9271 68.6707 62.1124 68.6707ZM62.1124 43.7733C56.208 43.7733 51.4034 48.5791 51.4034 54.485C51.4034 60.3909 56.208 65.1967 62.1124 65.1967C68.0168 65.1967 72.8214 60.3909 72.8214 54.485C72.8214 48.5791 68.0168 43.7733 62.1124 43.7733Z" fill="black"></path><path d="M112.242 47.8457C104.427 47.8457 98.0598 41.4765 98.0598 33.6599C98.0598 25.8432 104.427 19.4741 112.242 19.4741C120.057 19.4741 126.424 25.8432 126.424 33.6599C126.424 41.4765 120.057 47.8457 112.242 47.8457ZM112.242 22.9482C106.338 22.9482 101.533 27.754 101.533 33.6599C101.533 39.5658 106.338 44.3716 112.242 44.3716C118.146 44.3716 122.951 39.5658 122.951 33.6599C122.951 27.754 118.146 22.9482 112.242 22.9482Z" fill="black"></path><path d="M95.3392 100.516C87.5245 100.516 81.157 94.1472 81.157 86.3305C81.157 78.5139 87.5245 72.1448 95.3392 72.1448C103.154 72.1448 109.521 78.5139 109.521 86.3305C109.521 94.1472 103.154 100.516 95.3392 100.516ZM95.3392 75.6381C89.4348 75.6381 84.6302 80.4439 84.6302 86.3498C84.6302 92.2558 89.4348 97.0615 95.3392 97.0615C101.244 97.0615 106.048 92.2558 106.048 86.3498C106.029 80.4439 101.244 75.6381 95.3392 75.6381Z" fill="black"></path><path d="M33.7286 120.087C25.9139 120.087 19.5464 113.718 19.5464 105.901C19.5464 98.0844 25.9139 91.7153 33.7286 91.7153C41.5433 91.7153 47.9108 98.0844 47.9108 105.901C47.9108 113.718 41.5433 120.087 33.7286 120.087ZM33.7286 95.2087C27.8242 95.2087 23.0196 100.014 23.0196 105.92C23.0196 111.826 27.8242 116.632 33.7286 116.632C39.633 116.632 44.4376 111.826 44.4376 105.92C44.4376 100.014 39.633 95.2087 33.7286 95.2087Z" fill="black"></path></svg> 