<?xml version="1.0" encoding="UTF-8"?> <svg xmlns="http://www.w3.org/2000/svg" width="151" height="151" viewBox="0 0 151 151" fill="none"><path d="M63.8956 143.358H51.8209C51.2389 143.358 50.7314 142.982 50.5523 142.442L47.1792 132.412C45.2687 131.827 40.2389 130.175 37.6866 128.283L27.8359 133.103C27.3284 133.343 26.7165 133.253 26.3135 132.863L17.5523 124.335C17.1195 123.914 17.015 123.254 17.3135 122.713L22.5075 113.209C21.5374 111.798 19.5523 108.464 18.4777 103.419L8.00005 99.771C7.46273 99.5758 7.0896 99.0653 7.0896 98.4947V86.7835C7.0896 86.1979 7.46273 85.6874 8.01497 85.5073L18.4926 81.9939C18.8956 80.2372 20.0597 75.898 22.403 72.3546L17.5672 62.37C17.3135 61.8596 17.418 61.244 17.806 60.8386L26 52.3104C26.403 51.89 27.0299 51.7849 27.5523 52.0251L37.6269 56.8898C38.9851 56.0189 42.2538 54.1572 47.1941 53.0911L50.403 42.7162C50.5821 42.1456 51.1045 41.7703 51.6866 41.7703H64.0448C64.6269 41.7703 65.1344 42.1456 65.3135 42.6861L68.806 53.0911C70.6568 53.4965 75.3135 54.7127 78.3135 56.9949L87.8806 52.1903C88.3881 51.935 88.9851 52.0251 89.403 52.4155L98.0299 60.5083C98.4627 60.9136 98.5821 61.5443 98.3284 62.0698L93.5821 72.3096C94.3881 73.9011 96.5224 78.3003 97.1642 81.4834L107.657 85.5373C108.179 85.7325 108.522 86.243 108.522 86.7985V98.2245C108.522 98.795 108.164 99.3055 107.642 99.5007L97.2538 103.299C96.7762 105.146 95.418 110.101 93.5075 112.984L98.209 123.103C98.4478 123.614 98.3433 124.214 97.9553 124.62L89.6269 133.298C89.2239 133.719 88.5821 133.839 88.0598 133.568L77.8657 128.433C76.5224 129.349 73.3583 131.211 68.8359 132.097L65.209 142.487C64.9702 142.997 64.4627 143.358 63.8956 143.358ZM52.7911 140.655H62.9403L66.5075 130.43C66.6717 129.965 67.0747 129.62 67.5672 129.545C73.2836 128.614 76.8209 125.806 76.8508 125.776C77.2538 125.446 77.8209 125.386 78.2986 125.626L88.3433 130.671L95.3583 123.374L90.7165 113.374C90.4926 112.909 90.5672 112.353 90.8956 111.948C92.7463 109.65 94.3433 103.945 94.7911 101.948C94.8956 101.498 95.209 101.137 95.6418 100.987L105.821 97.2635V87.7144L95.4777 83.7055C95.015 83.5254 94.6866 83.105 94.6269 82.6095C94.2239 79.2913 90.9254 73.0303 90.8956 72.9702C90.7015 72.5949 90.6866 72.1444 90.8657 71.7691L95.4777 61.8145L88.2538 55.028L78.7463 59.8176C78.2538 60.0728 77.6568 59.9828 77.2389 59.6074C74.2538 56.8748 67.6269 55.6136 67.5523 55.5985C67.0747 55.5085 66.6866 55.1631 66.5224 54.6977L63.0896 44.4879H52.6866L49.5374 54.6676C49.3881 55.1481 49 55.4934 48.5075 55.5985C42.1941 56.8147 38.612 59.5023 38.5821 59.5323C38.1792 59.8476 37.6418 59.8927 37.1792 59.6825L27.2836 54.8929L20.418 62.0397L25.1792 71.8892C25.403 72.3396 25.3433 72.8801 25.0598 73.2855C22.1195 77.3094 21 83.2251 20.9851 83.2851C20.8956 83.7656 20.5523 84.171 20.0896 84.3211L9.80602 87.7744V97.5488L20.1045 101.137C20.5672 101.302 20.8956 101.693 20.9851 102.158C22.1941 108.614 25.1195 112.203 25.1493 112.233C25.5075 112.653 25.5672 113.269 25.2986 113.749L20.1941 123.103L27.5374 130.25L37.3284 125.461C37.8359 125.205 38.4627 125.31 38.8657 125.716C40.5523 127.413 46.4777 129.379 48.6269 129.995C49.0448 130.115 49.3881 130.445 49.5374 130.866L52.7911 140.655Z" fill="black"></path><path d="M57.8956 113.719C46.2986 113.719 36.8657 104.23 36.8657 92.564C36.8657 80.8978 46.2986 71.4087 57.8956 71.4087C69.4926 71.4087 78.9254 80.8978 78.9254 92.564C78.9254 104.23 69.4777 113.719 57.8956 113.719ZM57.8956 74.1113C47.7762 74.1113 39.5523 82.3842 39.5523 92.564C39.5523 102.744 47.7762 111.017 57.8956 111.017C68.015 111.017 76.2389 102.744 76.2389 92.564C76.2389 82.3842 68.0001 74.1113 57.8956 74.1113Z" fill="black"></path><path d="M111.119 61.5892C110.955 61.5892 110.791 61.5592 110.627 61.4991L104.478 59.0818C103.925 58.8716 103.582 58.3161 103.627 57.7305L104.03 51.7848C103.209 51.1992 101.836 50.0581 100.597 48.2714L94.9255 48.6017C94.3135 48.6318 93.821 48.3014 93.612 47.7759L91.0598 41.605C90.8359 41.0645 90.9852 40.4489 91.418 40.0735L95.5374 36.4401C95.418 35.1939 95.2837 32.8516 95.5822 31.185L91.3284 27.4014C90.9105 27.026 90.7613 26.4254 90.9702 25.8999L93.418 19.6239C93.6419 19.0534 94.224 18.708 94.8061 18.7681L100.343 19.3687C100.955 18.4828 102.149 17.0114 104.105 15.585L103.746 9.78946C103.717 9.21891 104.045 8.6784 104.567 8.45318L110.478 5.9758C111.015 5.75058 111.627 5.90073 112 6.33615L115.776 10.6903C116.881 10.5252 118.97 10.315 121 10.6453L124.791 6.32113C125.164 5.90073 125.761 5.75058 126.284 5.96079L132.314 8.34808C132.851 8.55828 133.194 9.0988 133.164 9.68436L132.851 15.525C133.672 16.1255 135.075 17.3267 136.463 19.2636L142.03 18.7531C142.642 18.693 143.164 19.0383 143.388 19.5789L146 25.8999C146.224 26.4405 146.075 27.056 145.642 27.4314L141.388 31.185C141.582 32.3561 141.821 34.5482 141.448 36.41L145.627 40.0435C146.045 40.4189 146.209 41.0044 146 41.545L143.731 47.6558C143.522 48.2114 142.985 48.5567 142.418 48.5417L136.537 48.2864C135.806 49.1272 134.358 50.7488 133.015 51.7397L133.179 57.6404C133.194 58.1959 132.866 58.7064 132.358 58.9317L126.597 61.349C126.075 61.5742 125.478 61.4391 125.09 61.0187L121.194 56.7546C120.015 56.9197 117.731 57.16 115.97 56.8897L112.075 61.1838C111.851 61.4391 111.478 61.5892 111.119 61.5892ZM106.373 56.9197L110.731 58.6464L114.522 54.4724C114.866 54.097 115.403 53.9319 115.896 54.082C117.179 54.4574 120.015 54.2021 121.508 53.9469C121.955 53.8718 122.418 54.0219 122.717 54.3673L126.463 58.4662L130.508 56.7696L130.358 51.0491C130.343 50.5536 130.612 50.0882 131.045 49.8329C132.284 49.1272 134.284 46.845 134.955 46.0343C135.224 45.704 135.642 45.5238 136.045 45.5388L141.612 45.779L143.209 41.4549L139.105 37.8814C138.687 37.5211 138.537 36.9205 138.717 36.395C139.284 34.7885 138.881 31.9057 138.672 30.9298C138.567 30.4493 138.731 29.9538 139.105 29.6235L143.209 26.005L141.343 21.5007L135.985 21.9962C135.478 22.0412 135.015 21.816 134.746 21.3956C132.881 18.5579 130.881 17.3567 130.866 17.3417C130.433 17.0865 130.164 16.606 130.194 16.0955L130.463 10.5102L126.209 8.82854L122.522 13.0176C122.194 13.3929 121.687 13.5581 121.194 13.438C118.672 12.8224 115.582 13.468 115.552 13.468C115.06 13.5731 114.582 13.4079 114.254 13.0326L110.627 8.82854L106.493 10.5552L106.836 16.1406C106.866 16.621 106.642 17.0865 106.224 17.3567C103.373 19.2335 102.239 21.3656 102.224 21.3806C101.97 21.8761 101.418 22.1613 100.881 22.1013L95.5374 21.5157L93.8061 25.96L97.9702 29.6686C98.4031 30.0439 98.5374 30.6595 98.3284 31.2C97.9553 32.1159 98.0747 35.0287 98.2687 36.7854C98.3135 37.2208 98.1493 37.6712 97.821 37.9565L93.8956 41.4098L95.7165 45.794L101.209 45.4787C101.717 45.4487 102.164 45.6889 102.433 46.1093C104.015 48.6768 106.06 49.8329 106.075 49.8479C106.537 50.1032 106.806 50.5987 106.761 51.1242L106.373 56.9197Z" fill="black"></path><path d="M118.552 45.9742C116.985 45.9742 115.403 45.6589 113.911 45.0433C110.911 43.7971 108.567 41.4398 107.314 38.4219C104.731 32.1909 107.672 24.999 113.881 22.4165C116.881 21.1553 120.194 21.1553 123.194 22.4015C126.194 23.6477 128.537 26.005 129.791 29.0229C132.373 35.2539 129.433 42.4458 123.224 45.0283C121.716 45.6589 120.134 45.9742 118.552 45.9742ZM118.552 24.1732C117.314 24.1732 116.075 24.4135 114.911 24.9089C110.075 26.9359 107.791 32.5212 109.806 37.3859C111.821 42.2506 117.388 44.5478 122.209 42.5359C127.045 40.5089 129.328 34.9085 127.314 30.0589C126.343 27.7016 124.508 25.8699 122.164 24.9089C121 24.4135 119.776 24.1732 118.552 24.1732Z" fill="black"></path></svg> 