<?xml version="1.0" encoding="UTF-8"?> <svg xmlns="http://www.w3.org/2000/svg" width="156" height="149" viewBox="0 0 156 149" fill="none"><path d="M130.517 133.756H23.078C20.4549 133.756 18.321 131.614 18.321 128.98V20.7847C18.321 18.1508 20.4549 16.0082 23.078 16.0082H130.517C133.14 16.0082 135.273 18.1508 135.273 20.7847V128.98C135.273 131.614 133.14 133.756 130.517 133.756ZM23.078 18.4647C21.8004 18.4647 20.7539 19.5155 20.7539 20.7983V128.993C20.7539 130.276 21.8004 131.327 23.078 131.327H130.517C131.794 131.327 132.841 130.29 132.841 128.993V20.7847C132.841 19.5019 131.794 18.451 130.517 18.451H23.078V18.4647Z" fill="url(#paint0_linear_331_136)"></path><path d="M38.273 67.8812C38.273 70.6925 40.4476 71.7843 42.9212 71.7843C44.5386 71.7843 47.0122 71.3066 47.0122 69.1503C47.0122 66.8713 43.859 66.4891 40.7738 65.6703C37.6614 64.8378 34.5083 63.6369 34.5083 59.6792C34.5083 55.3667 38.572 53.306 42.364 53.306C46.7404 53.306 50.777 55.2302 50.777 60.1023H46.3054C46.1559 57.5639 44.3619 56.9088 42.1601 56.9088C40.6923 56.9088 38.9798 57.5229 38.9798 59.2971C38.9798 60.9211 39.9855 61.1258 45.2453 62.4905C46.7811 62.8726 51.4837 63.8552 51.4837 68.6318C51.4837 72.5076 48.4529 75.4008 42.7445 75.4008C38.0964 75.4008 33.7472 73.0944 33.8015 67.8948H38.273V67.8812Z" fill="black"></path><path d="M68.0377 74.8822H64.0691V72.7532H63.9875C62.9274 74.4728 61.1062 75.2916 59.3393 75.2916C54.895 75.2916 53.7805 72.7805 53.7805 69.0002V59.611H57.953V68.236C57.953 70.7471 58.6869 71.989 60.6305 71.989C62.9002 71.989 63.8652 70.7198 63.8652 67.6219V59.611H68.0377V74.8822Z" fill="black"></path><path d="M71.2183 59.611H75.1869V61.5625H75.2413C76.247 59.9385 77.8915 59.2015 79.7671 59.2015C84.5377 59.2015 86.6851 63.0773 86.6851 67.4171C86.6851 71.4977 84.4561 75.3052 80.0118 75.3052C78.1906 75.3052 76.4509 74.5137 75.4587 72.9988H75.4044V80.2591H71.2183V59.611ZM82.5126 67.2943C82.5126 64.8788 81.5476 62.3677 78.8701 62.3677C76.1383 62.3677 75.2548 64.8242 75.2548 67.2943C75.2548 69.7781 76.1926 72.1391 78.8973 72.1391C81.6291 72.1391 82.5126 69.7781 82.5126 67.2943Z" fill="black"></path><path d="M92.638 68.2769C92.7603 70.9381 94.0515 72.1527 96.3756 72.1527C98.0473 72.1527 99.4064 71.1156 99.6647 70.1739H103.334C102.152 73.7768 99.6647 75.3189 96.2125 75.3189C91.4148 75.3189 88.4519 72.0163 88.4519 67.2807C88.4519 62.7089 91.6051 59.2152 96.2125 59.2152C101.391 59.2152 103.892 63.5823 103.593 68.2769H92.638ZM99.4336 65.6157C99.0531 63.4868 98.1424 62.3677 96.1038 62.3677C93.4535 62.3677 92.6924 64.4284 92.638 65.6157H99.4336Z" fill="black"></path><path d="M106.08 59.611H110.048V62.4496H110.103C110.864 60.5253 112.93 59.2015 114.955 59.2015C115.254 59.2015 115.607 59.2561 115.865 59.3517V63.2547C115.485 63.1729 114.86 63.1046 114.37 63.1046C111.312 63.1046 110.252 65.3155 110.252 68.004V74.8822H106.08V59.611Z" fill="black"></path><path d="M49.0235 104.769V87.4785H51.3612V108.945H49.4856L36.5468 91.7091V108.945H34.2634V87.4785H36.139L49.0235 104.769Z" fill="black"></path><path d="M57.3958 95.5713C58.6869 94.1383 60.3994 93.4286 62.5468 93.4286C64.6943 93.4286 66.4203 94.1383 67.7251 95.5713C69.0299 97.0042 69.6822 98.9148 69.6822 101.303C69.6822 103.691 69.0299 105.602 67.7251 107.035C66.4203 108.468 64.6943 109.178 62.5468 109.178C60.3994 109.178 58.6869 108.468 57.3958 107.035C56.1046 105.602 55.4658 103.691 55.4658 101.303C55.4658 98.9148 56.1046 97.0042 57.3958 95.5713ZM66.0126 97.0179C65.1971 95.9943 64.0419 95.4894 62.5604 95.4894C61.079 95.4894 59.9373 95.9943 59.1354 97.0179C58.3336 98.0414 57.9394 99.4744 57.9394 101.317C57.9394 105.193 59.4752 107.144 62.5604 107.144C65.6864 107.144 67.2494 105.206 67.2494 101.317C67.2358 99.4607 66.8281 98.0277 66.0126 97.0179Z" fill="black"></path><path d="M84.3335 86.7825H86.7936V108.959H84.4015V106.202C83.5045 108.195 81.8056 109.205 79.3048 109.205C77.3069 109.205 75.7031 108.468 74.4663 106.994C73.2295 105.52 72.6179 103.609 72.6179 101.262C72.6179 98.9148 73.2295 97.0179 74.4391 95.5849C75.6488 94.152 77.2661 93.4423 79.3048 93.4423C81.724 93.4423 83.4093 94.4249 84.3471 96.3764V86.7825H84.3335ZM83.1919 97.0179C82.39 95.9943 81.2483 95.4894 79.7669 95.4894C78.2855 95.4894 77.1302 95.9943 76.3147 96.9906C75.4993 97.9868 75.0779 99.4061 75.0779 101.248C75.0779 103.091 75.4857 104.537 76.3147 105.575C77.1302 106.612 78.2855 107.13 79.7669 107.13C81.2483 107.13 82.39 106.625 83.1919 105.602C83.9938 104.578 84.3879 103.145 84.3879 101.303C84.3879 99.4607 83.9938 98.0277 83.1919 97.0179Z" fill="black"></path><path d="M103.198 101.303H92.1893C92.1893 105.179 93.8882 107.13 97.286 107.13C99.08 107.13 100.697 106.544 102.152 105.37L102.967 107.13C101.486 108.495 99.5829 109.191 97.286 109.191C94.9075 109.191 93.0455 108.481 91.7272 107.076C90.3952 105.67 89.7292 103.746 89.7292 101.317C89.7292 98.9967 90.3952 97.1134 91.7272 95.6395C93.0591 94.1656 94.758 93.4286 96.8239 93.4286C98.8082 93.4286 100.371 94.0837 101.513 95.3938C102.641 96.704 103.212 98.5191 103.212 100.839V101.303H103.198ZM101.024 99.72C100.793 96.8132 99.379 95.3665 96.8103 95.3665C94.2687 95.3665 92.7465 96.8132 92.2436 99.72H101.024Z" fill="black"></path><defs><linearGradient id="paint0_linear_331_136" x1="76.7981" y1="80.9547" x2="76.7981" y2="2.10838" gradientUnits="userSpaceOnUse"><stop stop-color="#CDDF6C"></stop><stop offset="0.0666" stop-color="#D2D278"></stop><stop offset="0.2003" stop-color="#D9BE87"></stop><stop offset="0.325" stop-color="#DDAE8F"></stop><stop offset="0.4361" stop-color="#E0A593"></stop><stop offset="0.5223" stop-color="#E1A194"></stop><stop offset="0.6101" stop-color="#E19E96"></stop><stop offset="0.718" stop-color="#E0979B"></stop><stop offset="0.8363" stop-color="#DE8BA1"></stop><stop offset="0.9615" stop-color="#DB79A9"></stop><stop offset="1" stop-color="#DA73AD"></stop></linearGradient></defs></svg> 