<?xml version="1.0" encoding="UTF-8"?> <svg xmlns="http://www.w3.org/2000/svg" width="150" height="142" viewBox="0 0 150 142" fill="none"><g clip-path="url(#clip0_260_2)"><path d="M63.6985 42.4473V137.417H10.7122C9.5753 137.417 8.44951 137.192 7.39913 136.755C6.34875 136.317 5.39435 135.677 4.59042 134.869C3.78649 134.061 3.14878 133.102 2.7137 132.047C2.27862 130.992 2.05469 129.86 2.05469 128.718V51.1322C2.05832 48.8275 2.97205 46.6185 4.59526 44.9902C6.21847 43.3618 8.41847 42.4473 10.7122 42.4473H63.6985Z" stroke="black" stroke-width="3" stroke-linejoin="round"></path><path d="M62.7944 77.0766V102.773H60.8492C60.6232 102.773 60.3994 102.729 60.1908 102.641C59.9821 102.554 59.7927 102.426 59.6335 102.265C59.4744 102.103 59.3485 101.912 59.2633 101.702C59.178 101.492 59.1351 101.266 59.1369 101.039V91.7625C58.6561 91.7643 58.1796 91.6705 57.7351 91.4865C57.2905 91.3024 56.8866 91.0318 56.5466 90.6902C56.2066 90.3486 55.9372 89.9427 55.7541 89.4961C55.5709 89.0494 55.4775 88.5707 55.4794 88.0876V80.7515C55.4757 80.2679 55.5678 79.7884 55.7503 79.3409C55.9329 78.8934 56.2021 78.4868 56.5425 78.1448C56.8829 77.8029 57.2875 77.5323 57.7329 77.3489C58.1783 77.1655 58.6556 77.073 59.1369 77.0766H62.7944Z" fill="black"></path><path d="M30.8218 42.4472V35.0974C30.8471 26.3444 34.319 17.9571 40.4791 11.7678C46.6392 5.57839 54.9868 2.08999 63.6985 2.06458" stroke="black" stroke-width="3" stroke-linejoin="round"></path><path d="M119.178 57.3533C123.717 57.3533 127.397 53.656 127.397 49.0951C127.397 44.5342 123.717 40.8369 119.178 40.8369C114.639 40.8369 110.959 44.5342 110.959 49.0951C110.959 53.656 114.639 57.3533 119.178 57.3533Z" stroke="black" stroke-width="3" stroke-linejoin="round"></path><path d="M63.6985 69.7406H119.178V57.3533" stroke="black" stroke-width="3" stroke-linejoin="round"></path><path d="M119.178 139.935C123.717 139.935 127.397 136.238 127.397 131.677C127.397 127.116 123.717 123.419 119.178 123.419C114.639 123.419 110.959 127.116 110.959 131.677C110.959 136.238 114.639 139.935 119.178 139.935Z" stroke="black" stroke-width="3" stroke-linejoin="round"></path><path d="M63.6985 111.032H119.178V123.419" stroke="black" stroke-width="3" stroke-linejoin="round"></path><path d="M139.726 98.6444C144.265 98.6444 147.945 94.947 147.945 90.3861C147.945 85.8253 144.265 82.1279 139.726 82.1279C135.187 82.1279 131.507 85.8253 131.507 90.3861C131.507 94.947 135.187 98.6444 139.726 98.6444Z" stroke="black" stroke-width="3" stroke-linejoin="round"></path><path d="M63.6985 90.3862H131.507" stroke="black" stroke-width="3" stroke-linejoin="round"></path></g><defs><clipPath id="clip0_260_2"><rect width="150" height="142" fill="white"></rect></clipPath></defs></svg> 