<?xml version="1.0" encoding="UTF-8"?> <svg xmlns="http://www.w3.org/2000/svg" width="148" height="148" viewBox="0 0 148 148" fill="none"><g clip-path="url(#clip0_260_14)"><path d="M20.6168 127.383C17.3121 124.08 14.6907 120.157 12.9022 115.84C11.1137 111.524 10.1931 106.897 10.1931 102.224C10.1931 97.551 11.1137 92.9241 12.9022 88.6071C14.6907 84.2902 17.3121 80.3679 20.6168 77.0643L33.1965 64.5115L83.5154 114.804L70.9357 127.383C67.6321 130.688 63.7098 133.309 59.3929 135.098C55.076 136.886 50.449 137.807 45.7762 137.807C41.1035 137.807 36.4765 136.886 32.1596 135.098C27.8427 133.309 23.9204 130.688 20.6168 127.383Z" stroke="black" stroke-width="3" stroke-linejoin="round"></path><path d="M42.6313 73.9193L64.6459 51.9048" stroke="black" stroke-width="3" stroke-linejoin="round"></path><path d="M1.42456 146.575L20.6167 127.383" stroke="black" stroke-width="3" stroke-linejoin="round"></path><path d="M127.383 20.6168C130.688 23.9204 133.309 27.8427 135.098 32.1596C136.886 36.4765 137.807 41.1035 137.807 45.7762C137.807 50.449 136.886 55.0759 135.098 59.3929C133.309 63.7098 130.688 67.6321 127.383 70.9357L114.804 83.5154L64.5115 33.1965L77.0912 20.6168C83.7621 13.9509 92.8067 10.2065 102.237 10.2065C111.668 10.2065 120.712 13.9509 127.383 20.6168Z" stroke="black" stroke-width="3" stroke-linejoin="round"></path><path d="M146.575 1.42456L127.383 20.6167" stroke="black" stroke-width="3" stroke-linejoin="round"></path><path d="M74.0806 105.369L96.0951 83.354" stroke="black" stroke-width="3" stroke-linejoin="round"></path></g><defs><clipPath id="clip0_260_14"><rect width="148" height="148" fill="white"></rect></clipPath></defs></svg> 